<svg width="13" height="25" viewBox="0 0 13 25" fill="none" xmlns="http://www.w3.org/2000/svg">
<path fill-rule="evenodd" clip-rule="evenodd" d="M0.272733 0.282455C0.358967 0.192921 0.46141 0.121885 0.574193 0.073417C0.686977 0.0249487 0.807885 0 0.929994 0C1.0521 0 1.17301 0.0249487 1.28579 0.073417C1.39858 0.121885 1.50102 0.192921 1.58725 0.282455L12.7273 11.8196C12.8137 11.9089 12.8823 12.015 12.9291 12.1318C12.9759 12.2486 13 12.3738 13 12.5003C13 12.6267 12.9759 12.7519 12.9291 12.8687C12.8823 12.9855 12.8137 13.0916 12.7273 13.1809L1.58725 24.7181C1.41294 24.8986 1.17651 25 0.929994 25C0.683473 25 0.447049 24.8986 0.272733 24.7181C0.0984162 24.5375 0.000486045 24.2927 0.000486045 24.0374C0.000486045 23.7821 0.0984162 23.5372 0.272733 23.3567L10.7573 12.5003L0.272733 1.64383C0.18628 1.55453 0.117689 1.44843 0.0708892 1.33163C0.0240891 1.21482 0 1.08961 0 0.963144C0 0.836684 0.0240891 0.711465 0.0708892 0.594661C0.117689 0.477858 0.18628 0.371763 0.272733 0.282455Z" fill="black"/>
</svg>
