<svg width="49" height="49" viewBox="0 0 49 49" fill="none" xmlns="http://www.w3.org/2000/svg">
<path d="M24.0625 0.561096C19.3034 0.561096 14.6512 1.9645 10.6941 4.59383C6.73704 7.22316 3.65289 10.9603 1.83166 15.3327C0.0104259 19.7052 -0.466092 24.5164 0.462365 29.1582C1.39082 33.7999 3.68255 38.0636 7.04775 41.4101C10.413 44.7566 14.7005 47.0356 19.3681 47.9589C24.0358 48.8822 28.874 48.4083 33.2708 46.5972C37.6677 44.7861 41.4257 41.7191 44.0697 37.784C46.7138 33.8489 48.125 29.2226 48.125 24.4899C48.125 18.1436 45.5899 12.0572 41.0773 7.56968C36.5647 3.08216 30.4443 0.561096 24.0625 0.561096ZM44.4125 21.3108L34.375 27.0879V6.7484C37.0329 8.27929 39.3134 10.3812 41.05 12.9006C42.7866 15.4201 43.9354 18.2934 44.4125 21.3108ZM17.1875 29.0705V19.9092L24.0625 15.9439L30.9375 19.8921V29.0535L24.0625 33.0359L17.1875 29.0705ZM30.9375 5.14175V15.9439L14.3344 6.40656C16.8604 5.05517 19.6439 4.24723 22.5043 4.03522C25.3647 3.82321 28.238 4.21186 30.9375 5.17594V5.14175ZM11.1375 8.56015L20.625 13.9783L3.43751 23.8404C3.53576 20.8868 4.27467 17.9892 5.60367 15.3459C6.93267 12.7027 8.82037 10.3763 11.1375 8.52597V8.56015ZM3.71251 27.6519L13.75 21.8748V42.2314C11.0901 40.6987 8.80828 38.5942 7.07159 36.0716C5.3349 33.5491 4.18722 30.6724 3.71251 27.6519ZM17.1875 43.8038V33.0359L33.8078 42.5732C30.8123 44.174 27.4632 45.0081 24.0625 45.0003C21.7193 44.9911 19.3946 44.5866 17.1875 43.8038ZM36.9875 40.3854L27.5 34.9844L44.6875 25.1223C44.5917 28.0788 43.854 30.9798 42.5249 33.6261C41.1958 36.2725 39.3068 38.6016 36.9875 40.4538V40.3854Z" fill="#6C4FBF"/>
</svg>
