<svg width="44" height="47" viewBox="0 0 44 47" fill="none" xmlns="http://www.w3.org/2000/svg">
<path d="M36.6667 2.83448C32.8763 2.83448 29.7917 5.90193 29.7917 9.67129C29.7917 10.8153 30.1033 11.8773 30.6029 12.8276L28.0454 15.7948C26.5326 14.7729 24.7455 14.2274 22.9167 14.2292C21.2231 14.2292 19.6511 14.7214 18.2875 15.519L15.0471 12.2966C15.6908 11.1445 16.0328 9.84983 16.0417 8.53182C16.0417 4.13347 12.4438 0.555542 8.02084 0.555542C3.59792 0.555542 0 4.13347 0 8.53182C0 12.9302 3.59792 16.5081 8.02084 16.5081C9.39813 16.5081 10.6746 16.1298 11.8067 15.519L15.0471 18.7415C14.2077 20.1326 13.7597 21.7226 13.75 23.3449C13.75 25.617 14.6208 27.6726 16.0073 29.2724L12.1298 33.1284L12.1871 33.1854C11.2502 32.7148 10.2163 32.4667 9.16667 32.4607C5.37625 32.4607 2.29167 35.5281 2.29167 39.2975C2.29167 43.0668 5.37625 46.1343 9.16667 46.1343C12.9571 46.1343 16.0417 43.0668 16.0417 39.2975C16.0417 38.2127 15.7644 37.2031 15.3129 36.2938L15.3702 36.3508L19.8481 31.8978C20.8129 32.2396 21.835 32.4607 22.9167 32.4607C27.9721 32.4607 32.0834 28.3722 32.0834 23.3449C32.0735 21.9292 31.7289 20.5357 31.0773 19.277L33.9488 15.9452C34.7829 16.3053 35.6996 16.5081 36.6667 16.5081C40.4571 16.5081 43.5417 13.4406 43.5417 9.67129C43.5417 5.90193 40.4571 2.83448 36.6667 2.83448ZM9.16667 41.5764C8.55888 41.5764 7.97599 41.3363 7.54622 40.9089C7.11645 40.4815 6.875 39.9019 6.875 39.2975C6.875 38.6931 7.11645 38.1134 7.54622 37.686C7.97599 37.2586 8.55888 37.0185 9.16667 37.0185C9.77446 37.0185 10.3574 37.2586 10.7871 37.686C11.2169 38.1134 11.4583 38.6931 11.4583 39.2975C11.4583 39.9019 11.2169 40.4815 10.7871 40.9089C10.3574 41.3363 9.77446 41.5764 9.16667 41.5764ZM4.58334 8.53182C4.58334 6.64714 6.12563 5.11342 8.02084 5.11342C9.91605 5.11342 11.4583 6.64714 11.4583 8.53182C11.4583 10.4165 9.91605 11.9502 8.02084 11.9502C6.12563 11.9502 4.58334 10.4165 4.58334 8.53182ZM22.9167 27.9028C20.389 27.9028 18.3333 25.8586 18.3333 23.3449C18.3333 20.8312 20.389 18.787 22.9167 18.787C25.4444 18.787 27.5 20.8312 27.5 23.3449C27.5 25.8586 25.4444 27.9028 22.9167 27.9028ZM36.6667 11.9502C36.0589 11.9502 35.476 11.7101 35.0462 11.2827C34.6165 10.8554 34.375 10.2757 34.375 9.67129C34.375 9.06688 34.6165 8.48722 35.0462 8.05984C35.476 7.63245 36.0589 7.39235 36.6667 7.39235C37.2745 7.39235 37.8574 7.63245 38.2871 8.05984C38.7169 8.48722 38.9584 9.06688 38.9584 9.67129C38.9584 10.2757 38.7169 10.8554 38.2871 11.2827C37.8574 11.7101 37.2745 11.9502 36.6667 11.9502Z" fill="#6C4FBF"/>
</svg>
