<svg width="55" height="56" viewBox="0 0 55 56" fill="none" xmlns="http://www.w3.org/2000/svg">
<path d="M35.3571 24.0238H51.0714C52.113 24.0228 53.1117 23.6108 53.8482 22.8784C54.5847 22.146 54.999 21.1529 55 20.117V4.49006C54.999 3.45424 54.5847 2.46115 53.8482 1.72871C53.1117 0.996282 52.113 0.584347 51.0714 0.583313H35.3571C34.3155 0.584347 33.3169 0.996282 32.5804 1.72871C31.8438 2.46115 31.4296 3.45424 31.4286 4.49006H13.75C12.7084 4.49109 11.7098 4.90303 10.9732 5.63546C10.2367 6.3679 9.82247 7.36099 9.82143 8.39681V16.2103H3.92857C2.88697 16.2113 1.88833 16.6233 1.1518 17.3557C0.415276 18.0881 0.00104004 19.0812 0 20.117V35.744C0.00104004 36.7799 0.415276 37.7729 1.1518 38.5054C1.88833 39.2378 2.88697 39.6497 3.92857 39.6508H7.85714V47.4643C7.85818 48.5001 8.27242 49.4932 9.00894 50.2256C9.74547 50.9581 10.7441 51.37 11.7857 51.371H31.4286C31.4296 52.4068 31.8438 53.3999 32.5804 54.1324C33.3169 54.8648 34.3155 55.2767 35.3571 55.2778H51.0714C52.113 55.2767 53.1117 54.8648 53.8482 54.1324C54.5847 53.3999 54.999 52.4068 55 51.371V35.744C54.999 34.7082 54.5847 33.7151 53.8482 32.9827C53.1117 32.2503 52.113 31.8383 51.0714 31.8373H35.3571C34.3155 31.8383 33.3169 32.2503 32.5804 32.9827C31.8438 33.7151 31.4296 34.7082 31.4286 35.744V47.4643H11.7857V39.6508H19.6429C20.6845 39.6497 21.6831 39.2378 22.4196 38.5054C23.1562 37.7729 23.5704 36.7799 23.5714 35.744V20.117C23.5704 19.0812 23.1562 18.0881 22.4196 17.3557C21.6831 16.6233 20.6845 16.2113 19.6429 16.2103H13.75V8.39681H31.4286V20.117C31.4296 21.1529 31.8438 22.146 32.5804 22.8784C33.3169 23.6108 34.3155 24.0228 35.3571 24.0238ZM35.3571 51.371V43.5575H51.0714V51.371H35.3571ZM51.0714 35.744V39.6508H35.3571V35.744H51.0714ZM3.92857 35.744V27.9305H19.6429V35.744H3.92857ZM19.6429 24.0238H3.92857V20.117H19.6429V24.0238ZM35.3571 20.117V12.3036H51.0714V20.117H35.3571ZM51.0714 4.49006V8.39681H35.3571V4.49006H51.0714Z" fill="#6C4FBF"/>
</svg>
