<svg width="120" height="41" viewBox="0 0 120 41" fill="none" xmlns="http://www.w3.org/2000/svg">
<path d="M29.7494 3.96191L0.780622 20.5816C-0.350628 21.2279 -0.206878 22.7942 0.918122 23.2666L7.56187 26.0386L25.5181 10.3015C25.8619 9.99694 26.3494 10.4631 26.0556 10.8174L10.9994 29.0592V34.0625C10.9994 35.5293 12.7806 36.1073 13.6556 35.0445L17.6244 30.2401L25.4119 33.4845C26.2994 33.8574 27.3119 33.3042 27.4744 32.3533L31.9744 5.5033C32.1869 4.24781 30.8306 3.34038 29.7494 3.96191Z" fill="#4B26B4"/>
<path d="M54.118 33.374C59.864 33.374 63.4 29.94 63.4 25.622C63.4 20.59 60.374 18.992 54.492 18.244C50.752 17.7 49.97 16.884 49.97 15.15C49.97 13.518 51.194 12.396 53.608 12.396C56.022 12.396 57.314 13.416 57.654 15.626H62.72C62.278 10.798 59.082 8.35 53.608 8.35C48.236 8.35 44.768 11.444 44.768 15.592C44.768 20.284 47.318 22.154 53.54 22.97C57.11 23.514 58.13 24.194 58.13 26.132C58.13 28.036 56.532 29.362 54.118 29.362C50.514 29.362 49.596 27.56 49.358 25.384H44.088C44.394 30.246 47.454 33.374 54.118 33.374ZM67.06 33H71.956V7.16H67.06V33ZM76.5893 33H81.4853V15.218H76.5893V33ZM79.0033 12.804C80.6013 12.804 81.8253 11.648 81.8253 10.118C81.8253 8.588 80.6013 7.432 79.0033 7.432C77.4393 7.432 76.2153 8.588 76.2153 10.118C76.2153 11.648 77.4393 12.804 79.0033 12.804ZM86.0158 33H90.9458V24.602L96.8278 33H102.404L95.4338 23.31L101.894 15.218H96.6578L90.9458 22.732V7.16H86.0158V33Z" fill="#2D3958"/>
</svg>
