<svg width="97" height="113" viewBox="0 0 97 113" fill="none" xmlns="http://www.w3.org/2000/svg">
<path fill-rule="evenodd" clip-rule="evenodd" d="M93.2702 112.383C91.7615 112.383 90.5385 111.024 90.5385 109.346C90.5385 107.669 91.7615 106.309 93.2702 106.309C94.7789 106.309 96.002 107.669 96.002 109.346C96.002 111.024 94.7789 112.383 93.2702 112.383Z" fill="white"/>
<path fill-rule="evenodd" clip-rule="evenodd" d="M93.2702 91.1215C91.7615 91.1215 90.5385 89.7616 90.5385 88.0841C90.5385 86.4066 91.7615 85.0468 93.2702 85.0468C94.7789 85.0468 96.002 86.4066 96.002 88.0841C96.002 89.7616 94.7789 91.1215 93.2702 91.1215Z" fill="white"/>
<path fill-rule="evenodd" clip-rule="evenodd" d="M93.2702 69.8603C91.7615 69.8603 90.5385 68.5004 90.5385 66.8229C90.5385 65.1454 91.7615 63.7855 93.2702 63.7855C94.7789 63.7855 96.002 65.1454 96.002 66.8229C96.002 68.5004 94.7789 69.8603 93.2702 69.8603Z" fill="white"/>
<path fill-rule="evenodd" clip-rule="evenodd" d="M93.2702 48.5983C91.7615 48.5983 90.5385 47.2385 90.5385 45.5609C90.5385 43.8834 91.7615 42.5236 93.2702 42.5236C94.7789 42.5236 96.002 43.8834 96.002 45.5609C96.002 47.2385 94.7789 48.5983 93.2702 48.5983Z" fill="white"/>
<path fill-rule="evenodd" clip-rule="evenodd" d="M93.2702 27.3369C91.7615 27.3369 90.5385 25.977 90.5385 24.2995C90.5385 22.622 91.7615 21.2621 93.2702 21.2621C94.7789 21.2621 96.002 22.622 96.002 24.2995C96.002 25.977 94.7789 27.3369 93.2702 27.3369Z" fill="white"/>
<path fill-rule="evenodd" clip-rule="evenodd" d="M93.2698 6.07478C91.7611 6.07478 90.5381 4.71489 90.5381 3.03739C90.5381 1.35988 91.7611 0 93.2698 0C94.7786 0 96.0016 1.35988 96.0016 3.03739C96.0016 4.71489 94.7786 6.07478 93.2698 6.07478Z" fill="white"/>
<path fill-rule="evenodd" clip-rule="evenodd" d="M75.3183 112.383C73.8096 112.383 72.5865 111.024 72.5865 109.346C72.5865 107.669 73.8096 106.309 75.3183 106.309C76.827 106.309 78.0501 107.669 78.0501 109.346C78.0501 111.024 76.827 112.383 75.3183 112.383Z" fill="white"/>
<path fill-rule="evenodd" clip-rule="evenodd" d="M75.3183 91.1215C73.8096 91.1215 72.5865 89.7616 72.5865 88.0841C72.5865 86.4066 73.8096 85.0468 75.3183 85.0468C76.827 85.0468 78.0501 86.4066 78.0501 88.0841C78.0501 89.7616 76.827 91.1215 75.3183 91.1215Z" fill="white"/>
<path fill-rule="evenodd" clip-rule="evenodd" d="M75.3183 69.8603C73.8096 69.8603 72.5865 68.5004 72.5865 66.8229C72.5865 65.1454 73.8096 63.7855 75.3183 63.7855C76.827 63.7855 78.0501 65.1454 78.0501 66.8229C78.0501 68.5004 76.827 69.8603 75.3183 69.8603Z" fill="white"/>
<path fill-rule="evenodd" clip-rule="evenodd" d="M75.3183 48.5983C73.8096 48.5983 72.5865 47.2385 72.5865 45.5609C72.5865 43.8834 73.8096 42.5236 75.3183 42.5236C76.827 42.5236 78.0501 43.8834 78.0501 45.5609C78.0501 47.2385 76.827 48.5983 75.3183 48.5983Z" fill="white"/>
<path fill-rule="evenodd" clip-rule="evenodd" d="M75.3183 27.3369C73.8096 27.3369 72.5865 25.977 72.5865 24.2995C72.5865 22.622 73.8096 21.2621 75.3183 21.2621C76.827 21.2621 78.0501 22.622 78.0501 24.2995C78.0501 25.977 76.827 27.3369 75.3183 27.3369Z" fill="white"/>
<path fill-rule="evenodd" clip-rule="evenodd" d="M75.3182 6.07478C73.8095 6.07478 72.5864 4.71489 72.5864 3.03739C72.5864 1.35988 73.8095 0 75.3182 0C76.8269 0 78.0499 1.35988 78.0499 3.03739C78.0499 4.71489 76.8269 6.07478 75.3182 6.07478Z" fill="white"/>
<path fill-rule="evenodd" clip-rule="evenodd" d="M57.3664 112.383C55.8577 112.383 54.6346 111.024 54.6346 109.346C54.6346 107.669 55.8577 106.309 57.3664 106.309C58.8751 106.309 60.0982 107.669 60.0982 109.346C60.0982 111.024 58.8751 112.383 57.3664 112.383Z" fill="white"/>
<path fill-rule="evenodd" clip-rule="evenodd" d="M57.3664 91.1215C55.8577 91.1215 54.6346 89.7616 54.6346 88.0841C54.6346 86.4066 55.8577 85.0468 57.3664 85.0468C58.8751 85.0468 60.0982 86.4066 60.0982 88.0841C60.0982 89.7616 58.8751 91.1215 57.3664 91.1215Z" fill="white"/>
<path fill-rule="evenodd" clip-rule="evenodd" d="M57.3664 69.8603C55.8577 69.8603 54.6346 68.5004 54.6346 66.8229C54.6346 65.1454 55.8577 63.7855 57.3664 63.7855C58.8751 63.7855 60.0982 65.1454 60.0982 66.8229C60.0982 68.5004 58.8751 69.8603 57.3664 69.8603Z" fill="white"/>
<path fill-rule="evenodd" clip-rule="evenodd" d="M57.3664 48.5983C55.8577 48.5983 54.6346 47.2385 54.6346 45.5609C54.6346 43.8834 55.8577 42.5236 57.3664 42.5236C58.8751 42.5236 60.0982 43.8834 60.0982 45.5609C60.0982 47.2385 58.8751 48.5983 57.3664 48.5983Z" fill="white"/>
<path fill-rule="evenodd" clip-rule="evenodd" d="M57.3664 27.3369C55.8577 27.3369 54.6346 25.977 54.6346 24.2995C54.6346 22.622 55.8577 21.2621 57.3664 21.2621C58.8751 21.2621 60.0982 22.622 60.0982 24.2995C60.0982 25.977 58.8751 27.3369 57.3664 27.3369Z" fill="white"/>
<path fill-rule="evenodd" clip-rule="evenodd" d="M57.3665 6.07478C55.8578 6.07478 54.6348 4.71489 54.6348 3.03739C54.6348 1.35988 55.8578 0 57.3665 0C58.8752 0 60.0983 1.35988 60.0983 3.03739C60.0983 4.71489 58.8752 6.07478 57.3665 6.07478Z" fill="white"/>
<path fill-rule="evenodd" clip-rule="evenodd" d="M38.6356 112.383C37.1269 112.383 35.9038 111.024 35.9038 109.346C35.9038 107.669 37.1269 106.309 38.6356 106.309C40.1443 106.309 41.3673 107.669 41.3673 109.346C41.3673 111.024 40.1443 112.383 38.6356 112.383Z" fill="white"/>
<path fill-rule="evenodd" clip-rule="evenodd" d="M38.6356 91.1215C37.1269 91.1215 35.9038 89.7616 35.9038 88.0841C35.9038 86.4066 37.1269 85.0468 38.6356 85.0468C40.1443 85.0468 41.3673 86.4066 41.3673 88.0841C41.3673 89.7616 40.1443 91.1215 38.6356 91.1215Z" fill="white"/>
<path fill-rule="evenodd" clip-rule="evenodd" d="M38.6356 69.8603C37.1269 69.8603 35.9038 68.5004 35.9038 66.8229C35.9038 65.1454 37.1269 63.7855 38.6356 63.7855C40.1443 63.7855 41.3673 65.1454 41.3673 66.8229C41.3673 68.5004 40.1443 69.8603 38.6356 69.8603Z" fill="white"/>
<path fill-rule="evenodd" clip-rule="evenodd" d="M38.6356 48.5983C37.1269 48.5983 35.9038 47.2385 35.9038 45.5609C35.9038 43.8834 37.1269 42.5236 38.6356 42.5236C40.1443 42.5236 41.3673 43.8834 41.3673 45.5609C41.3673 47.2385 40.1443 48.5983 38.6356 48.5983Z" fill="white"/>
<path fill-rule="evenodd" clip-rule="evenodd" d="M38.6356 27.3369C37.1269 27.3369 35.9038 25.977 35.9038 24.2995C35.9038 22.622 37.1269 21.2621 38.6356 21.2621C40.1443 21.2621 41.3673 22.622 41.3673 24.2995C41.3673 25.977 40.1443 27.3369 38.6356 27.3369Z" fill="white"/>
<path fill-rule="evenodd" clip-rule="evenodd" d="M38.6351 6.07478C37.1264 6.07478 35.9033 4.71489 35.9033 3.03739C35.9033 1.35988 37.1264 0 38.6351 0C40.1438 0 41.3668 1.35988 41.3668 3.03739C41.3668 4.71489 40.1438 6.07478 38.6351 6.07478Z" fill="white"/>
<path fill-rule="evenodd" clip-rule="evenodd" d="M20.6837 112.383C19.175 112.383 17.9519 111.024 17.9519 109.346C17.9519 107.669 19.175 106.309 20.6837 106.309C22.1924 106.309 23.4154 107.669 23.4154 109.346C23.4154 111.024 22.1924 112.383 20.6837 112.383Z" fill="white"/>
<path fill-rule="evenodd" clip-rule="evenodd" d="M20.6837 91.1215C19.175 91.1215 17.9519 89.7616 17.9519 88.0841C17.9519 86.4066 19.175 85.0468 20.6837 85.0468C22.1924 85.0468 23.4154 86.4066 23.4154 88.0841C23.4154 89.7616 22.1924 91.1215 20.6837 91.1215Z" fill="white"/>
<path fill-rule="evenodd" clip-rule="evenodd" d="M20.6837 69.8603C19.175 69.8603 17.9519 68.5004 17.9519 66.8229C17.9519 65.1454 19.175 63.7855 20.6837 63.7855C22.1924 63.7855 23.4154 65.1454 23.4154 66.8229C23.4154 68.5004 22.1924 69.8603 20.6837 69.8603Z" fill="white"/>
<path fill-rule="evenodd" clip-rule="evenodd" d="M20.6837 48.5983C19.175 48.5983 17.9519 47.2385 17.9519 45.5609C17.9519 43.8834 19.175 42.5236 20.6837 42.5236C22.1924 42.5236 23.4154 43.8834 23.4154 45.5609C23.4154 47.2385 22.1924 48.5983 20.6837 48.5983Z" fill="white"/>
<path fill-rule="evenodd" clip-rule="evenodd" d="M20.6837 27.3369C19.175 27.3369 17.9519 25.977 17.9519 24.2995C17.9519 22.622 19.175 21.2621 20.6837 21.2621C22.1924 21.2621 23.4154 22.622 23.4154 24.2995C23.4154 25.977 22.1924 27.3369 20.6837 27.3369Z" fill="white"/>
<path fill-rule="evenodd" clip-rule="evenodd" d="M20.6834 6.07478C19.1747 6.07478 17.9517 4.71489 17.9517 3.03739C17.9517 1.35988 19.1747 0 20.6834 0C22.1921 0 23.4152 1.35988 23.4152 3.03739C23.4152 4.71489 22.1921 6.07478 20.6834 6.07478Z" fill="white"/>
<path fill-rule="evenodd" clip-rule="evenodd" d="M2.73176 112.383C1.22305 112.383 0 111.024 0 109.346C0 107.669 1.22305 106.309 2.73176 106.309C4.24046 106.309 5.46351 107.669 5.46351 109.346C5.46351 111.024 4.24046 112.383 2.73176 112.383Z" fill="white"/>
<path fill-rule="evenodd" clip-rule="evenodd" d="M2.73176 91.1215C1.22305 91.1215 0 89.7616 0 88.0841C0 86.4066 1.22305 85.0468 2.73176 85.0468C4.24046 85.0468 5.46351 86.4066 5.46351 88.0841C5.46351 89.7616 4.24046 91.1215 2.73176 91.1215Z" fill="white"/>
<path fill-rule="evenodd" clip-rule="evenodd" d="M2.73176 69.8603C1.22305 69.8603 0 68.5004 0 66.8229C0 65.1454 1.22305 63.7855 2.73176 63.7855C4.24046 63.7855 5.46351 65.1454 5.46351 66.8229C5.46351 68.5004 4.24046 69.8603 2.73176 69.8603Z" fill="white"/>
<path fill-rule="evenodd" clip-rule="evenodd" d="M2.73176 48.5983C1.22305 48.5983 0 47.2385 0 45.5609C0 43.8834 1.22305 42.5236 2.73176 42.5236C4.24046 42.5236 5.46351 43.8834 5.46351 45.5609C5.46351 47.2385 4.24046 48.5983 2.73176 48.5983Z" fill="white"/>
<path fill-rule="evenodd" clip-rule="evenodd" d="M2.73176 27.3369C1.22305 27.3369 0 25.977 0 24.2995C0 22.622 1.22305 21.2621 2.73176 21.2621C4.24046 21.2621 5.46351 22.622 5.46351 24.2995C5.46351 25.977 4.24046 27.3369 2.73176 27.3369Z" fill="white"/>
<path fill-rule="evenodd" clip-rule="evenodd" d="M2.73176 6.07478C1.22305 6.07478 0 4.71489 0 3.03739C0 1.35988 1.22305 0 2.73176 0C4.24046 0 5.46351 1.35988 5.46351 3.03739C5.46351 4.71489 4.24046 6.07478 2.73176 6.07478Z" fill="white"/>
</svg>
