<svg width="65" height="18" viewBox="0 0 65 18" fill="none" xmlns="http://www.w3.org/2000/svg">
<path d="M1.04849 9.0731C2.49098 9.44537 4.00793 9.21715 5.02777 7.91072C5.23515 7.64507 5.79988 7.19152 6.09609 7.02902C6.4216 6.85045 6.71445 6.51537 6.98546 6.24026C7.50594 5.7119 7.98503 5.12466 8.56317 4.64501C8.94426 4.32884 9.46008 4.13378 9.81435 3.77414C10.1501 3.43327 10.6359 3.42868 10.9748 3.1538C11.6118 2.63717 12.9947 3.25047 13.6363 3.41791C14.2768 3.58508 15.1081 4.29654 15.578 4.81821C16.2505 5.56487 16.9815 6.29689 17.6549 7.04458C17.7971 7.20239 18.0408 7.36157 18.2196 7.47267C18.3958 7.58213 18.886 7.67561 18.9815 7.80825C19.1262 8.0093 19.8924 8.47134 20.1209 8.47677C21.0148 8.49802 22.2073 9.52208 23.133 8.89824" stroke="#385173" stroke-width="2" stroke-linecap="round" stroke-linejoin="round"/>
<path d="M21.2747 8.69517C22.7172 9.06744 24.2341 8.83922 25.254 7.53279C25.4613 7.26714 26.0261 6.81359 26.3223 6.65109C26.6478 6.47252 26.9406 6.13744 27.2117 5.86233C27.7321 5.33397 28.2112 4.74673 28.7894 4.26708C29.1705 3.95091 29.6863 3.75585 30.0405 3.39621C30.3763 3.05534 30.8621 3.05075 31.201 2.77587C31.838 2.25924 33.2209 2.87254 33.8625 3.03999C34.503 3.20715 35.3343 3.91861 35.8042 4.44028C36.4767 5.18694 37.2077 5.91896 37.8811 6.66665C38.0233 6.82446 38.267 6.98364 38.4458 7.09474C38.622 7.2042 39.1122 7.29768 39.2077 7.43032C39.3524 7.63137 40.1186 8.09341 40.3471 8.09884C41.241 8.12009 42.4335 9.14415 43.3592 8.52031" stroke="#385173" stroke-width="2" stroke-linecap="round" stroke-linejoin="round"/>
<path d="M41.5013 8.3175C42.9439 8.68998 44.4608 8.46198 45.4805 7.15569C45.6878 6.89007 46.2525 6.4366 46.5486 6.27414C46.8741 6.09562 47.1669 5.76058 47.4379 5.48551C47.9583 4.95722 48.4373 4.37004 49.0154 3.89047C49.3965 3.57436 49.9122 3.37937 50.2665 3.01978C50.6022 2.67896 51.0879 2.67444 51.4268 2.39961C52.0638 1.88306 53.4467 2.49657 54.0883 2.66411C54.7288 2.83136 55.5603 3.54294 56.0302 4.06469C56.7028 4.81145 57.4339 5.54358 58.1074 6.29137C58.2496 6.4492 58.4933 6.60843 58.6721 6.71954C58.8483 6.82904 59.3386 6.92259 59.4341 7.05524C59.5788 7.25631 60.345 7.71847 60.5735 7.72393C61.4675 7.74531 62.6601 8.76955 63.5857 8.14584" stroke="#385173" stroke-width="2" stroke-linecap="round" stroke-linejoin="round"/>
<path d="M1.01358 15.94C2.45606 16.3123 3.97302 16.0841 4.99286 14.7777C5.20023 14.512 5.76497 14.0585 6.06118 13.896C6.38668 13.7174 6.67954 13.3823 6.95055 13.1072C7.47103 12.5788 7.95012 11.9916 8.52826 11.512C8.90935 11.1958 9.42517 11.0007 9.77944 10.6411C10.1152 10.3002 10.601 10.2956 10.9399 10.0207C11.5769 9.50411 12.9598 10.1174 13.6014 10.2849C14.2419 10.452 15.0732 11.1635 15.5431 11.6852C16.2156 12.4318 16.9466 13.1638 17.62 13.9115C17.7622 14.0693 18.0059 14.2285 18.1847 14.3396C18.3609 14.4491 18.8511 14.5426 18.9466 14.6752C19.0912 14.8762 19.8575 15.3383 20.086 15.3437C20.9799 15.365 22.1724 16.389 23.0981 15.7652" stroke="#385173" stroke-width="2" stroke-linecap="round" stroke-linejoin="round"/>
<path d="M21.2398 15.5621C22.6823 15.9344 24.1992 15.7062 25.2191 14.3997C25.4264 14.1341 25.9912 13.6805 26.2874 13.518C26.6129 13.3395 26.9057 13.0044 27.1767 12.7293C27.6972 12.2009 28.1763 11.6137 28.7545 11.134C29.1355 10.8179 29.6514 10.6228 30.0056 10.2632C30.3414 9.92228 30.8272 9.9177 31.1661 9.64282C31.8031 9.12619 33.186 9.73948 33.8275 9.90693C34.4681 10.0741 35.2994 10.7855 35.7693 11.3072C36.4418 12.0539 37.1728 12.7859 37.8462 13.5336C37.9883 13.6914 38.2321 13.8506 38.4109 13.9617C38.5871 14.0711 39.0773 14.1646 39.1728 14.2973C39.3174 14.4983 40.0837 14.9604 40.3122 14.9658C41.2061 14.987 42.3986 16.0111 43.3243 15.3873" stroke="#385173" stroke-width="2" stroke-linecap="round" stroke-linejoin="round"/>
<path d="M41.4651 15.1842C42.9076 15.5565 44.4246 15.3282 45.4444 14.0218C45.6518 13.7562 46.2165 13.3026 46.5127 13.1401C46.8382 12.9615 47.1311 12.6265 47.4021 12.3513C47.9226 11.823 48.4017 11.2357 48.9798 10.7561C49.3609 10.4399 49.8767 10.2449 50.231 9.88523C50.5668 9.54435 51.0525 9.53977 51.3914 9.26489C52.0285 8.74826 53.4113 9.36155 54.0529 9.529C54.6934 9.69616 55.5248 10.4076 55.9946 10.9293C56.6672 11.676 57.3981 12.408 58.0716 13.1557C58.2137 13.3135 58.4574 13.4727 58.6362 13.5838C58.8124 13.6932 59.3027 13.7867 59.3981 13.9193C59.5428 14.1204 60.309 14.5824 60.5375 14.5879C61.4315 14.6091 62.6239 15.6332 63.5496 15.0093" stroke="#385173" stroke-width="2" stroke-linecap="round" stroke-linejoin="round"/>
</svg>
